<?xml version="1.0" encoding="utf-8"?>
<!-- Generator: Adobe Illustrator 25.0.1, SVG Export Plug-In . SVG Version: 6.00 Build 0)  -->
<svg version="1.1" id="Layer_1" xmlns="http://www.w3.org/2000/svg" xmlns:xlink="http://www.w3.org/1999/xlink" x="0px" y="0px"
	 viewBox="0 0 800 200" style="enable-background:new 0 0 800 200;" xml:space="preserve">
<style type="text/css">
	.st0{fill:#A39161;}
	.st1{fill:#FFFFFF;}
</style>
<g>
	<rect class="st0" width="200" height="200"/>
	<path class="st1" d="M135.8,166.4V165h1.2c0.5,0,0.8,0.3,0.8,0.7c0,0.5-0.4,0.7-0.9,0.7H135.8 M135,168.9h0.7V167h0.4
		c0.6,0,0.8,0.2,1.4,1.2l0.4,0.7h0.9l-0.6-0.9c-0.4-0.6-0.7-1-1.1-1.1v0c0.8,0,1.3-0.6,1.3-1.3c0-0.5-0.4-1.2-1.5-1.2h-2V168.9z
		 M140.5,166.6c0,2-1.6,3.6-3.6,3.6c-2,0-3.5-1.6-3.5-3.6c0-2,1.6-3.5,3.5-3.5C138.9,163,140.5,164.6,140.5,166.6 M141.2,166.6
		c0-2.4-1.9-4.2-4.3-4.2c-2.4,0-4.2,1.9-4.2,4.2c0,2.4,1.9,4.3,4.2,4.3C139.2,170.8,141.2,168.9,141.2,166.6"/>
	<path class="st1" d="M109.8,165c-0.4-2.4-2.3-5.2-5.8-8.3c-2.9-2.5-2.9-7.7-3.1-9.1H84c-1.4,1.8-2.3,3.9-7.6,7
		c-6.9,3.8-9.5,5.1-11.1,10.4H109.8"/>
	<path class="st1" d="M107,156.7c4.8,3.8,6.2,5.9,7.3,8.3h13.4c-1.3-5.1-4.3-6.6-11-10.6c-5.1-3.1-6.5-5.2-7.6-6.8h-5.7
		C103.3,148.7,103.3,153.8,107,156.7"/>
	<rect x="103.4" y="131.7" class="st1" width="5" height="8.2"/>
	<rect x="84.7" y="131.7" class="st1" width="16.4" height="8.2"/>
	<path class="st1" d="M115.8,121.9c0-1.3-1.1-2-2.4-2H79.7c-1.3,0-2.4,0.7-2.4,2s1.1,2,2.4,2h33.7
		C114.8,123.9,115.8,123.2,115.8,121.9"/>
	<path class="st1" d="M109.2,125.9L109.2,125.9H83.9c-1.3,0-2.4,0.9-2.4,2c0,1.1,1.1,2,2.4,2h25.2c1.3,0,2.4-0.9,2.4-2
		C111.6,126.8,110.5,125.9,109.2,125.9"/>
	<path class="st1" d="M109.2,141.7L109.2,141.7H83.9c-1.3,0-2.4,0.9-2.4,2c0,1.1,1.1,2,2.4,2h25.2c1.3,0,2.4-0.9,2.4-2
		C111.6,142.6,110.5,141.7,109.2,141.7"/>
	<path class="st1" d="M130.5,168.8c0-1.1-1.1-2-2.4-2v0H65v0c-1.3,0-2.4,0.9-2.4,2c0,1.1,1.1,2,2.4,2h63.1
		C129.4,170.8,130.5,169.9,130.5,168.8"/>
	<path class="st1" d="M111.4,38.9c-7.3-4.9-15.3-8.4-24.1-9.7c-0.5,0.2-0.4,0.3-0.5,1c0.2,3.2,0.5,6.3,1.1,9.3
		c-1.3,0.2-2.6-0.2-3.8-0.6c-0.5-0.2-1.1-0.3-1.6-0.2c-0.7,0-0.7,0.7-0.7,1.2c0.5,3.6,4.2,6.7,7.6,7.4c-0.2,0.3-1.7,0.4-3.3-0.2
		c-2.7-1.2-5.2,1.6-6.1,2.3c-4.9,4.1-7.3,9.4-11.6,13.9c-0.6,0.6-1.1,1.1-1.8,1.8c-0.6,0.7-1.2,1.4-1.8,2.1c-2.3,2.8-5,5.4-6,8.8
		c-0.2,0.7-0.1,1.4,0.1,2.4c0.5,1.5,1.7,3,3,4.2c0.8,0.6,1.5-0.7,2.3,0.6c0,0,0.6,0.8,2,0.1c4-1.9,7.6-4.8,12.4-4.9
		c6.3,0.3,12.5-2.5,15-8.4l0.4,0.1c-0.5,3.6-3.7,6.5-7,8.1c-2.2,1.1-2.6,2.6-2.8,2.7C81,88.6,79,94.2,74.2,101.4
		c-1.5,2.2-0.9,5.1,0,7.4c1.3,3.2,2.4,6.6,4.4,9.6H115c5.1-7.7,8.8-16.1,11.4-24.9C131.8,73.9,128.6,51.4,111.4,38.9 M83.1,59.1
		c0,0-1.1,2.3-3.6,1.6c-2.5-0.7-1.1-3.8-1.1-3.8s1.5-0.1,4.6,1.3l0.7-0.1c0,0-1.1-2.6-5.4-2.3c0,0-1.2-1-0.6-2.7
		c0,0,3.4,1.1,4.4,1.6c1,0.5,3.1,1.7,3.6,4L83.1,59.1z M86.9,116.8c-0.3,0.5-2.3,0-3.5-0.6c-1.2-0.5-2.6-1.4-4.3-3.7
		c-1.7-2.3-2.1-3.9-2.7-5.7c0,0,0-0.4,0.1-0.5c0.2-0.1,0.3,0,0.5,0.4c0.2,0.4,1.6,3,3.5,4.5c0,0,2,1.9,3.9,3.2
		C86.5,115.7,87.2,116.3,86.9,116.8 M126.4,79.5l-7.5,1c0,0-0.2,2.3-0.3,2.9l7.2,1.1l0,0.9l-7.4,0.4l-0.5,3.1l6.8,2.2l-0.2,0.8
		l-7.3-0.4l-0.7,2.8l6.5,2.1l-0.3,0.8l-6.9-0.5l-0.6,2.1l5.9,3l-0.4,0.7l-6.3-1.5c0,0-0.5,1.6-0.8,2.2l5.1,3.1l-0.3,0.7l-5.7-1.7
		c0,0-0.7,1.6-0.9,1.9l4.6,3.2l-0.4,0.7l-5.2-1.9l-1,1.9l3.7,3.2l-0.4,0.6l-4.5-1.8l-1.3,2l2.8,2.5l-0.5,0.4l-3.4-1.3l-1.2,1.5h-1.9
		c0,0,11.7-14.2,13.1-37c0,0,2.2-20.6-13.4-33.2c0,0-3.3-2.8-5.4-3.6c0,0-0.9-0.4-1.6-1.5c-0.7-1.1-3.4-3-7.7-3.1l2.2-7.8l1,0.2
		L91,39c0,0,2.1,0.4,2.5,0.6l2.8-5.8l1,0.3l-1.6,6.4l2.2,1.2l3.7-5.8l0.9,0.4l-2.5,6.8l2,1.4l5-5.8l0.8,0.5L104,46l2.1,1.8l6.3-5.4
		L113,43l-5.2,6.5l1.8,1.9l7.2-4.8l0.6,0.7l-6.3,5.8c0,0,1.4,1.6,1.9,2.7l8.1-3.5l0.3,0.7l-7.2,4.8c0,0,1.1,1.6,1.5,2.9l8.2-2.1
		l0.2,0.8l-7.5,3.5c0,0,1,2.3,1.2,3.5l7.9-1.1l0.1,0.9l-7.4,2.4c0,0,0.2,0.7,0.5,3.4l7.5-0.2l0,1l-7.3,1.6c0,0,0.1,2.3,0,3.3
		l7.4,0.6L126.4,79.5z"/>
</g>
<g>
	<g>
		<polygon points="252.2,84.1 252.2,121.7 274.6,121.7 274.6,116.8 257.6,116.8 257.6,84.1 		"/>
		<path d="M288.7,102.4c0,10.2,7.8,19.3,20.1,19.3c12.8,0,20.4-9.2,20.4-19.3c0-10.5-7.8-19.3-20.3-19.3
			C296.7,83.1,288.7,91.9,288.7,102.4 M294.2,102.4c0-8.3,6.2-14.4,14.6-14.4c8.4,0,14.7,6.1,14.7,14.4c0,8.2-6.2,14.4-14.7,14.4
			C300.5,116.7,294.2,110.6,294.2,102.4"/>
		<path d="M346.9,84v37.7h5.4v-16.3h2.3c2.8,0,5,0.9,10,8.6l5,7.7h6.5c-2.6-3.6-3.5-4.9-5.1-7.5c-2.9-4.7-5-8.2-8.4-10.4
			c4-1.6,6.3-4.9,6.3-9.2c0-6.5-4.8-10.6-12.4-10.6H346.9z M352.3,88.7h3.5c5.2,0,7.3,2.2,7.4,5.7c0.1,3.1-1.6,6.1-7.4,6.1h-3.5
			V88.7z"/>
		<path d="M391.3,121.7H406c12.4,0,20-9.2,20-18.8c0-8.9-6.1-18.8-20-18.8h-14.6V121.7z M396.7,88.9h8.3c10.6,0,15.4,6.4,15.4,14
			c0,4.6-2.8,14-15.1,14h-8.6V88.9z"/>
		<path d="M472.9,92.1l6.1,13.6h-11.7L472.9,92.1z M471.1,83.8l-16.2,37.9h5.5l4.7-11.1h16l5,11.1h5.5l-16.8-37.9H471.1z"/>
		<path d="M512.3,105h6.5c5.7,0,8.3,2.4,8.3,5.8c0,2.8-1.7,6-8.1,6h-6.8V105z M506.9,121.7h12.9c9.4,0,12.9-5.4,12.9-10
			c0-5.1-3.4-8.8-9.1-9.8v-0.1c3.9-1.6,5.7-4.2,5.7-8.1c0-4.8-3.5-9.6-11.6-9.6h-10.9V121.7z M512.3,88.9h5c5,0,6.6,2.4,6.6,5.3
			c0,4-2.6,6-7.9,6h-3.6V88.9z"/>
		<path d="M554.5,105h6.5c5.7,0,8.3,2.4,8.3,5.8c0,2.8-1.7,6-8.1,6h-6.8V105z M549.1,121.7H562c9.4,0,12.9-5.4,12.9-10
			c0-5.1-3.4-8.8-9.1-9.8v-0.1c3.9-1.6,5.7-4.2,5.7-8.1c0-4.8-3.5-9.6-11.6-9.6h-10.9V121.7z M554.5,88.9h5c5,0,6.6,2.4,6.6,5.3
			c0,4-2.6,6-8,6h-3.6V88.9z"/>
		<polygon points="591.2,84.1 591.2,121.7 613.1,121.7 613.1,116.8 596.6,116.8 596.6,105.1 612,105.1 612,100.3 596.6,100.3 
			596.6,88.9 612.6,88.9 612.6,84.1 		"/>
		<polygon points="626.7,84.1 626.7,88.9 639.7,88.9 639.7,121.7 645.1,121.7 645.1,88.9 658.2,88.9 658.2,84.1 		"/>
		<polygon points="671.1,84.1 671.1,88.9 684.1,88.9 684.1,121.7 689.5,121.7 689.5,88.9 702.6,88.9 702.6,84.1 		"/>
	</g>
	<g>
		<path d="M715.7,82.8c1.2,0,2.4,0.3,3.6,0.9c1.2,0.6,2.1,1.5,2.7,2.7c0.6,1.2,1,2.4,1,3.6c0,1.2-0.3,2.4-1,3.6
			c-0.6,1.2-1.5,2.1-2.7,2.7c-1.2,0.6-2.4,1-3.6,1c-1.3,0-2.5-0.3-3.6-1c-1.2-0.6-2-1.5-2.7-2.7c-0.6-1.2-1-2.4-1-3.6
			c0-1.3,0.3-2.5,1-3.6c0.7-1.2,1.6-2.1,2.7-2.7C713.3,83.1,714.5,82.8,715.7,82.8z M715.7,84c-1,0-2,0.3-3,0.8
			c-1,0.5-1.7,1.3-2.3,2.2c-0.5,1-0.8,2-0.8,3c0,1,0.3,2,0.8,3c0.5,1,1.3,1.7,2.2,2.2c1,0.5,2,0.8,3,0.8c1,0,2-0.3,3-0.8
			c1-0.5,1.7-1.3,2.2-2.2c0.5-1,0.8-2,0.8-3c0-1.1-0.3-2.1-0.8-3c-0.5-1-1.3-1.7-2.3-2.2C717.8,84.2,716.8,84,715.7,84z M712.6,94
			v-7.8h2.7c0.9,0,1.6,0.1,2,0.2c0.4,0.1,0.7,0.4,1,0.8c0.2,0.4,0.4,0.7,0.4,1.1c0,0.6-0.2,1.1-0.6,1.5c-0.4,0.4-0.9,0.7-1.6,0.7
			c0.3,0.1,0.5,0.3,0.7,0.4c0.3,0.3,0.7,0.8,1.2,1.6l1,1.5h-1.5l-0.7-1.2c-0.5-1-1-1.6-1.3-1.8c-0.2-0.2-0.6-0.3-1-0.3h-0.7V94
			H712.6z M713.8,89.6h1.5c0.7,0,1.2-0.1,1.5-0.3c0.3-0.2,0.4-0.5,0.4-0.9c0-0.2-0.1-0.4-0.2-0.6c-0.1-0.2-0.3-0.3-0.5-0.4
			c-0.2-0.1-0.6-0.1-1.3-0.1h-1.4V89.6z"/>
	</g>
</g>
</svg>
