<?xml version="1.0" encoding="UTF-8"?>
<svg id="Layer_1" xmlns="http://www.w3.org/2000/svg" xmlns:xlink="http://www.w3.org/1999/xlink" version="1.1" viewBox="0 0 800 200">
  <!-- Generator: Adobe Illustrator 29.3.1, SVG Export Plug-In . SVG Version: 2.1.0 Build 151)  -->
  <defs>
    <style>
      .st0 {
        fill: #fff;
      }

      .st1 {
        fill: #fcfcfc;
      }

      .st2 {
        fill: #a39161;
      }
    </style>
  </defs>
  <g>
    <rect class="st2" y="0" width="200" height="200"/>
    <path class="st0" d="M135.8,166.4v-1.4h1.2c.5,0,.8.3.8.7s-.4.7-.9.7h-1.1M135,168.9h.7v-1.9h.4c.6,0,.8.2,1.4,1.2l.4.7h.9l-.6-.9c-.4-.6-.7-1-1.1-1.1h0c.8,0,1.3-.6,1.3-1.3s-.4-1.2-1.5-1.2h-2v4.5h.1ZM140.5,166.6c0,2-1.6,3.6-3.6,3.6s-3.5-1.6-3.5-3.6,1.6-3.5,3.5-3.5c2-.1,3.6,1.5,3.6,3.5M141.2,166.6c0-2.4-1.9-4.2-4.3-4.2s-4.2,1.9-4.2,4.2,1.9,4.3,4.2,4.3c2.3-.1,4.3-2,4.3-4.3"/>
    <path class="st0" d="M109.8,165c-.4-2.4-2.3-5.2-5.8-8.3-2.9-2.5-2.9-7.7-3.1-9.1h-16.9c-1.4,1.8-2.3,3.9-7.6,7-6.9,3.8-9.5,5.1-11.1,10.4h44.5"/>
    <path class="st0" d="M107,156.7c4.8,3.8,6.2,5.9,7.3,8.3h13.4c-1.3-5.1-4.3-6.6-11-10.6-5.1-3.1-6.5-5.2-7.6-6.8h-5.7c-.1,1.1-.1,6.2,3.6,9.1"/>
    <rect class="st0" x="103.4" y="131.7" width="5" height="8.2"/>
    <rect class="st0" x="84.7" y="131.7" width="16.4" height="8.2"/>
    <path class="st0" d="M115.8,121.9c0-1.3-1.1-2-2.4-2h-33.7c-1.3,0-2.4.7-2.4,2s1.1,2,2.4,2h33.7c1.4,0,2.4-.7,2.4-2"/>
    <path class="st0" d="M109.2,125.9h-25.3c-1.3,0-2.4.9-2.4,2s1.1,2,2.4,2h25.2c1.3,0,2.4-.9,2.4-2,0-1.1-1-2-2.3-2"/>
    <path class="st0" d="M109.2,141.7h-25.3c-1.3,0-2.4.9-2.4,2s1.1,2,2.4,2h25.2c1.3,0,2.4-.9,2.4-2,0-1.1-1-2-2.3-2"/>
    <path class="st0" d="M130.5,168.8c0-1.1-1.1-2-2.4-2h-63.1c-1.3,0-2.4.9-2.4,2s1.1,2,2.4,2h63.1c1.3,0,2.4-.9,2.4-2"/>
    <path class="st0" d="M111.4,38.9c-7.3-4.9-15.3-8.4-24.1-9.7-.5.2-.4.3-.5,1,.2,3.2.5,6.3,1.1,9.3-1.3.2-2.6-.2-3.8-.6-.5-.2-1.1-.3-1.6-.2-.7,0-.7.7-.7,1.2.5,3.6,4.2,6.7,7.6,7.4-.2.3-1.7.4-3.3-.2-2.7-1.2-5.2,1.6-6.1,2.3-4.9,4.1-7.3,9.4-11.6,13.9l-1.8,1.8c-.6.7-1.2,1.4-1.8,2.1-2.3,2.8-5,5.4-6,8.8-.2.7,0,1.4,0,2.4.5,1.5,1.7,3,3,4.2.8.6,1.5-.7,2.3.6,0,0,.6.8,2,0,4-1.9,7.6-4.8,12.4-4.9,6.3.3,12.5-2.5,15-8.4h.4c-.5,3.7-3.7,6.6-7,8.2-2.2,1.1-2.6,2.6-2.8,2.7-3.2,7.7-5.2,13.3-10,20.5-1.5,2.2-.9,5.1,0,7.4,1.3,3.2,2.4,6.6,4.4,9.6h36.4c5.1-7.7,8.8-16.1,11.4-24.9,5.4-19.6,2.2-42.1-15-54.6M83.1,59.1s-1.1,2.3-3.6,1.6-1.1-3.8-1.1-3.8c0,0,1.5,0,4.6,1.3h.7c0,0-1.1-2.7-5.4-2.4,0,0-1.2-1-.6-2.7,0,0,3.4,1.1,4.4,1.6s3.1,1.7,3.6,4l-2.6.4ZM86.9,116.8c-.3.5-2.3,0-3.5-.6-1.2-.5-2.6-1.4-4.3-3.7-1.7-2.3-2.1-3.9-2.7-5.7,0,0,0-.4,0-.5.2,0,.3,0,.5.4s1.6,3,3.5,4.5c0,0,2,1.9,3.9,3.2,2.1,1.3,2.8,1.9,2.5,2.4M126.4,79.5l-7.5,1s-.2,2.3-.3,2.9l7.2,1.1v.9l-7.4.4-.5,3.1,6.8,2.2-.2.8-7.3-.4-.7,2.8,6.5,2.1-.3.8-6.9-.5-.6,2.1,5.9,3-.4.7-6.3-1.5s-.5,1.6-.8,2.2l5.1,3.1-.3.7-5.7-1.7s-.7,1.6-.9,1.9l4.6,3.2-.4.7-5.2-1.9-1,1.9,3.7,3.2-.4.6-4.5-1.8-1.3,2,2.8,2.5-.5.4-3.4-1.3-1.2,1.5h-1.9s11.7-14.2,13.1-37c0,0,2.2-20.6-13.4-33.2,0,0-3.3-2.8-5.4-3.6,0,0-.9-.4-1.6-1.5s-3.4-3-7.7-3.1l2.2-7.8,1,.2-.3,6.8s2.1.4,2.5.6l2.8-5.8,1,.3-1.6,6.4,2.2,1.2,3.7-5.8.9.4-2.5,6.8,2,1.4,5-5.8.8.5-3.8,6.8,2.1,1.8,6.3-5.4.6.6-5.2,6.5,1.8,1.9,7.2-4.8.6.7-6.3,5.8s1.4,1.6,1.9,2.7l8.1-3.5.3.7-7.2,4.8s1.1,1.6,1.5,2.9l8.2-2.1.2.8-7.5,3.5s1,2.3,1.2,3.5l7.9-1.1v.9c0,0-7.3,2.4-7.3,2.4,0,0,.2.7.5,3.4l7.5-.2v1l-7.3,1.6s0,2.3,0,3.3l7.4.6v1.2Z"/>
  </g>
  <g>
    <g>
      <polygon class="st1" points="252.2 84.1 252.2 121.7 274.6 121.7 274.6 116.8 257.6 116.8 257.6 84.1 252.2 84.1"/>
      <path class="st1" d="M288.7,102.4c0,10.2,7.8,19.3,20.1,19.3s20.4-9.2,20.4-19.3-7.8-19.3-20.3-19.3c-12.2,0-20.2,8.8-20.2,19.3M294.2,102.4c0-8.3,6.2-14.4,14.6-14.4s14.7,6.1,14.7,14.4-6.2,14.4-14.7,14.4c-8.3-.1-14.6-6.2-14.6-14.4"/>
      <path class="st1" d="M346.9,84v37.7h5.4v-16.3h2.3c2.8,0,5,.9,10,8.6l5,7.7h6.5c-2.6-3.6-3.5-4.9-5.1-7.5-2.9-4.7-5-8.2-8.4-10.4,4-1.6,6.3-4.9,6.3-9.2,0-6.5-4.8-10.6-12.4-10.6,0,0-9.6,0-9.6,0ZM352.3,88.7h3.5c5.2,0,7.3,2.2,7.4,5.7.1,3.1-1.6,6.1-7.4,6.1h-3.5v-11.8Z"/>
      <path class="st1" d="M391.3,121.7h14.7c12.4,0,20-9.2,20-18.8s-6.1-18.8-20-18.8h-14.6v37.6h-.1ZM396.7,88.9h8.3c10.6,0,15.4,6.4,15.4,14s-2.8,14-15.1,14h-8.6v-28h0Z"/>
      <path class="st1" d="M472.9,92.1l6.1,13.6h-11.7l5.6-13.6ZM471.1,83.8l-16.2,37.9h5.5l4.7-11.1h16l5,11.1h5.5l-16.8-37.9h-3.7Z"/>
      <path class="st1" d="M512.3,105h6.5c5.7,0,8.3,2.4,8.3,5.8s-1.7,6-8.1,6h-6.8v-11.8h0ZM506.9,121.7h12.9c9.4,0,12.9-5.4,12.9-10s-3.4-8.8-9.1-9.8h0c3.9-1.7,5.7-4.3,5.7-8.2s-3.5-9.6-11.6-9.6h-10.9v37.6h0ZM512.3,88.9h5c5,0,6.6,2.4,6.6,5.3s-2.6,6-7.9,6h-3.6v-11.3h0Z"/>
      <path class="st1" d="M554.5,105h6.5c5.7,0,8.3,2.4,8.3,5.8s-1.7,6-8.1,6h-6.8v-11.8h0ZM549.1,121.7h12.9c9.4,0,12.9-5.4,12.9-10s-3.4-8.8-9.1-9.8h0c3.9-1.7,5.7-4.3,5.7-8.2s-3.5-9.6-11.6-9.6h-10.9v37.6h0ZM554.5,88.9h5c5,0,6.6,2.4,6.6,5.3s-2.6,6-8,6h-3.6v-11.3Z"/>
      <polygon class="st1" points="591.2 84.1 591.2 121.7 613.1 121.7 613.1 116.8 596.6 116.8 596.6 105.1 612 105.1 612 100.3 596.6 100.3 596.6 88.9 612.6 88.9 612.6 84.1 591.2 84.1"/>
      <polygon class="st1" points="626.7 84.1 626.7 88.9 639.7 88.9 639.7 121.7 645.1 121.7 645.1 88.9 658.2 88.9 658.2 84.1 626.7 84.1"/>
      <polygon class="st1" points="671.1 84.1 671.1 88.9 684.1 88.9 684.1 121.7 689.5 121.7 689.5 88.9 702.6 88.9 702.6 84.1 671.1 84.1"/>
    </g>
    <path class="st1" d="M715.7,82.8c1.2,0,2.4.3,3.6.9,1.2.6,2.1,1.5,2.7,2.7.6,1.2,1,2.4,1,3.6s-.3,2.4-1,3.6c-.6,1.2-1.5,2.1-2.7,2.7s-2.4,1-3.6,1-2.5-.3-3.6-1c-1.2-.6-2-1.5-2.7-2.7-.6-1.2-1-2.4-1-3.6s.3-2.5,1-3.6c.7-1.2,1.6-2.1,2.7-2.7,1.2-.6,2.4-.9,3.6-.9ZM715.7,84c-1,0-2,.3-3,.8s-1.7,1.3-2.3,2.2c-.5,1-.8,2-.8,3s.3,2,.8,3,1.3,1.7,2.2,2.2c1,.5,2,.8,3,.8s2-.3,3-.8,1.7-1.3,2.2-2.2c.5-1,.8-2,.8-3s-.3-2.1-.8-3c-.5-1-1.3-1.7-2.3-2.2-.7-.6-1.7-.8-2.8-.8ZM712.6,94v-7.8h2.7c.9,0,1.6,0,2,.2s.7.4,1,.8c.2.4.4.7.4,1.1,0,.6-.2,1.1-.6,1.5-.4.4-.9.7-1.6.7.3,0,.5.3.7.4.3.3.7.8,1.2,1.6l1,1.5h-1.5l-.7-1.2c-.5-1-1-1.6-1.3-1.8-.2-.2-.6-.3-1-.3h-.7v3.3h-1.6ZM713.8,89.6h1.5c.7,0,1.2,0,1.5-.3.3-.2.4-.5.4-.9s0-.4-.2-.6c0-.2-.3-.3-.5-.4s-.6,0-1.3,0h-1.4v2.3Z"/>
  </g>
</svg>