<svg width="16" height="16" viewBox="0 0 16 16" fill="none" xmlns="http://www.w3.org/2000/svg">
<mask id="mask0_1371_11011" style="mask-type:alpha" maskUnits="userSpaceOnUse" x="0" y="0" width="16" height="16">
<circle cx="8" cy="8" r="8" fill="#C4C4C4"/>
</mask>
<g mask="url(#mask0_1371_11011)">
<g clip-path="url(#clip0_1371_11011)">
<path fill-rule="evenodd" clip-rule="evenodd" d="M-6 -1H28.2V0.385156H-6V-1ZM-6 1.77031H28.2V3.15547H-6V1.77031ZM-6 4.53711H28.2V5.92578H-6V4.53711ZM-6 7.30742H28.2V8.69258H-6V7.30742ZM-6 10.0777H28.2V11.4629H-6V10.0777ZM-6 12.8445H28.2V14.2297H-6V12.8445ZM-6 15.6148H28.2V17H-6V15.6148Z" fill="#BD3D44"/>
<path fill-rule="evenodd" clip-rule="evenodd" d="M-6 0.385155H28.2V1.77031H-6V0.385155ZM-6 3.15547H28.2V4.53711H-6V3.15547ZM-6 5.92226H28.2V7.30742H-6V5.92226ZM-6 8.69258H28.2V10.0777H-6V8.69258ZM-6 11.4629H28.2V12.848H-6V11.4629ZM-6 14.2297H28.2V15.6148H-6V14.2297Z" fill="white"/>
<path fill-rule="evenodd" clip-rule="evenodd" d="M-6 -1H7.6793V8.69258H-6V-1Z" fill="#192F5D"/>
<path fill-rule="evenodd" clip-rule="evenodd" d="M-4.86084 -0.585159L-4.73428 -0.201957H-4.3335L-4.65693 0.0335895L-4.53389 0.420308L-4.86084 0.181246L-5.18428 0.416792L-5.06123 0.0335895L-5.38818 -0.201957H-4.98037L-4.86084 -0.585159ZM-2.5792 -0.585159L-2.45615 -0.201957H-2.05186L-2.37881 0.0335895L-2.25576 0.420308L-2.5792 0.181246L-2.90615 0.416792L-2.78311 0.0335895L-3.10654 -0.201957H-2.70576L-2.5792 -0.585159ZM-0.301074 -0.585159L-0.174512 -0.201957H0.222754L-0.100683 0.0335895L0.0223636 0.420308L-0.30459 0.181246L-0.628027 0.416792L-0.50498 0.0335895L-0.831933 -0.201957H-0.427637L-0.301074 -0.585159ZM1.98057 -0.585159L2.10361 -0.201957H2.50791L2.18096 0.0335895L2.30752 0.420308L1.98057 0.181246L1.65361 0.416792L1.78018 0.0335895L1.45322 -0.201957H1.854L1.98057 -0.585159ZM4.25869 -0.585159L4.38525 -0.201957H4.78603L4.4626 0.0335895L4.58564 0.420308L4.25869 0.181246L3.93525 0.416792L4.0583 0.0335895L3.73486 -0.201957H4.13564L4.25869 -0.585159ZM6.54033 -0.585159L6.66338 -0.201957H7.06768L6.74072 0.0335895L6.86729 0.420308L6.54033 0.181246L6.21338 0.416792L6.33994 0.0335895L6.01299 -0.201957H6.41729L6.54033 -0.585159ZM-3.71826 0.385152L-3.59521 0.768354H-3.19092L-3.51787 1.0039L-3.39834 1.3871L-3.71475 1.15156L-4.0417 1.3871L-3.92568 1.0039L-4.24209 0.768354H-3.84131L-3.71826 0.385152ZM-1.44014 0.385152L-1.31357 0.768354H-0.912793L-1.23975 1.0039L-1.11318 1.3871L-1.44014 1.15156L-1.76709 1.3871L-1.64053 1.0039L-1.96748 0.768354H-1.56318L-1.44014 0.385152ZM0.841504 0.385152L0.964551 0.768354H1.36885L1.04189 1.0039L1.16494 1.3871L0.841504 1.15156L0.514551 1.3871L0.637598 1.0039L0.314161 0.768354H0.714942L0.841504 0.385152ZM3.11963 0.385152L3.24619 0.768354H3.64697L3.32002 1.0039L3.44658 1.3871L3.11963 1.15156L2.79619 1.3871L2.91924 1.0039L2.59229 0.768354H3.0001L3.11963 0.385152ZM5.40127 0.385152L5.52432 0.768354H5.92861L5.60166 1.0039L5.72471 1.3871L5.40127 1.15156L5.07432 1.3871L5.19736 1.0039L4.87393 0.768354H5.27471L5.40127 0.385152ZM-4.86084 1.35195L-4.73428 1.74218H-4.3335L-4.65693 1.97773L-4.53389 2.36093L-4.86084 2.12187L-5.18428 2.36093L-5.06123 1.97421L-5.38818 1.73866H-4.98037L-4.86084 1.35195ZM-2.5792 1.35195L-2.45615 1.73866H-2.05186L-2.37881 1.97421L-2.25576 2.35741L-2.5792 2.11835L-2.90615 2.35741L-2.78311 1.9707L-3.10654 1.73515H-2.70576L-2.5792 1.35195ZM-0.301074 1.35195L-0.174512 1.73866H0.222754L-0.100683 1.97421L0.0223636 2.35741L-0.30459 2.11835L-0.628027 2.35741L-0.50498 1.9707L-0.831933 1.73515H-0.427637L-0.301074 1.35195ZM1.98057 1.35195L2.10361 1.73866H2.50791L2.18096 1.97421L2.30752 2.35741L1.98057 2.11835L1.65361 2.35741L1.78018 1.9707L1.45322 1.73515H1.854L1.98057 1.35195ZM4.25869 1.35195L4.38525 1.73866H4.78603L4.4626 1.97421L4.58564 2.35741L4.25869 2.11835L3.93525 2.35741L4.0583 1.9707L3.73486 1.73515H4.13564L4.25869 1.35195ZM6.54033 1.35195L6.66338 1.73866H7.06768L6.74072 1.97421L6.86729 2.35741L6.54033 2.11835L6.21338 2.35741L6.33994 1.9707L6.01299 1.73515H6.41729L6.54033 1.35195ZM-3.71826 2.32226L-3.59521 2.70546H-3.19092L-3.51787 2.94101L-3.39482 3.32772L-3.71826 3.08866L-4.04521 3.32421L-3.92217 2.94101L-4.24561 2.70546H-3.84482L-3.71826 2.32226ZM-1.44014 2.32226L-1.31357 2.70546H-0.912793L-1.23975 2.94101L-1.11318 3.32772L-1.44014 3.08866L-1.76709 3.32421L-1.64053 2.94101L-1.96748 2.70546H-1.56318L-1.44014 2.32226ZM0.841504 2.32226L0.964551 2.70546H1.36885L1.04189 2.94101L1.16494 3.32772L0.841504 3.08866L0.514551 3.32421L0.637598 2.94101L0.314161 2.70546H0.714942L0.841504 2.32226ZM3.11963 2.32226L3.24619 2.70546H3.64697L3.32354 2.94101L3.44658 3.32772L3.11963 3.08866L2.79619 3.32421L2.91924 2.94101L2.59229 2.70546H3.0001L3.11963 2.32226ZM5.40127 2.32226L5.52432 2.70546H5.92861L5.60166 2.94101L5.72471 3.32772L5.40127 3.08866L5.07432 3.32421L5.19736 2.94101L4.87393 2.70546H5.27471L5.40127 2.32226ZM-4.86084 3.29257L-4.73428 3.67577H-4.3335L-4.65693 3.91132L-4.53389 4.29803L-4.86084 4.05897L-5.18428 4.29452L-5.06123 3.91132L-5.38818 3.67577H-4.98037L-4.86084 3.29257ZM-2.5792 3.29257L-2.45615 3.67577H-2.05186L-2.37881 3.91132L-2.25576 4.29452L-2.5792 4.05897L-2.90615 4.29452L-2.78311 3.91132L-3.10654 3.67577H-2.70576L-2.5792 3.29257ZM-0.301074 3.29257L-0.174512 3.67577H0.222754L-0.100683 3.91132L0.0223636 4.29803L-0.30459 4.05897L-0.628027 4.29452L-0.50498 3.91132L-0.831933 3.67577H-0.427637L-0.301074 3.29257ZM1.98057 3.29257L2.10361 3.67577H2.50791L2.18096 3.91132L2.30752 4.29803L1.98057 4.05897L1.65361 4.29452L1.78018 3.91132L1.45322 3.67577H1.854L1.98057 3.29257ZM4.25869 3.29257L4.38525 3.67577H4.78603L4.4626 3.91132L4.58564 4.29803L4.25869 4.05897L3.93525 4.29452L4.0583 3.91132L3.73486 3.67577H4.13564L4.25869 3.29257ZM6.54033 3.29257L6.66338 3.67577H7.06768L6.74072 3.91132L6.86729 4.29803L6.54033 4.05897L6.21338 4.29452L6.33994 3.91132L6.01299 3.67577H6.41729L6.54033 3.29257ZM-3.71826 4.26288L-3.59521 4.64608H-3.19092L-3.51787 4.88163L-3.39482 5.26483L-3.71826 5.02577L-4.04521 5.26483L-3.92217 4.87811L-4.24561 4.64257H-3.84482L-3.71826 4.26288ZM-1.44014 4.26288L-1.31357 4.64608H-0.912793L-1.23975 4.88163L-1.11318 5.26483L-1.44014 5.02577L-1.76709 5.26483L-1.64053 4.87811L-1.96748 4.64257H-1.56318L-1.44014 4.26288ZM0.841504 4.26288L0.964551 4.64608H1.36885L1.04189 4.88163L1.16494 5.26483L0.841504 5.02577L0.514551 5.26483L0.637598 4.87811L0.314161 4.64257H0.714942L0.841504 4.26288ZM3.11963 4.26288L3.24619 4.64608H3.64697L3.32354 4.88163L3.44658 5.26483L3.11963 5.02577L2.79619 5.26483L2.91924 4.87811L2.59229 4.64257H3.0001L3.11963 4.26288ZM5.40127 4.26288L5.52432 4.64608H5.92861L5.60166 4.88163L5.72471 5.26483L5.40127 5.02577L5.07432 5.26483L5.19736 4.87811L4.87393 4.64257H5.27471L5.40127 4.26288ZM-4.86084 5.22967L-4.73428 5.61639H-4.3335L-4.65693 5.85194L-4.53389 6.23163L-4.86084 5.99608L-5.18428 6.23163L-5.06123 5.84842L-5.38818 5.61288H-4.98037L-4.86084 5.22967ZM-2.5792 5.22967L-2.45615 5.61639H-2.05186L-2.37881 5.85194L-2.25225 6.23163L-2.5792 5.99608L-2.90615 6.23163L-2.77959 5.84842L-3.10654 5.61288H-2.70576L-2.5792 5.22967ZM-0.301074 5.22967L-0.174512 5.61639H0.222754L-0.100683 5.85194L0.0223636 6.23163L-0.30459 5.99608L-0.628027 6.23163L-0.50498 5.84842L-0.831933 5.61288H-0.427637L-0.301074 5.22967ZM1.98057 5.22967L2.10361 5.61639H2.50791L2.18096 5.85194L2.30752 6.23163L1.98057 5.99608L1.65361 6.23163L1.78018 5.84842L1.45322 5.61288H1.854L1.98057 5.22967ZM4.25869 5.22967L4.38525 5.61639H4.78603L4.4626 5.85194L4.58564 6.23163L4.25869 5.99608L3.93525 6.23163L4.0583 5.84842L3.73486 5.61288H4.13564L4.25869 5.22967ZM6.54033 5.22967L6.66338 5.61639H7.06768L6.74072 5.85194L6.86729 6.23163L6.54033 5.99608L6.21338 6.23163L6.33994 5.84842L6.01299 5.61288H6.41729L6.54033 5.22967ZM-3.71826 6.19998L-3.59521 6.58319H-3.19092L-3.51787 6.81873L-3.39482 7.20545L-3.71826 6.96639L-4.04521 7.20194L-3.92217 6.81873L-4.24561 6.58319H-3.84482L-3.71826 6.19998ZM-1.44014 6.19998L-1.31357 6.58319H-0.912793L-1.23975 6.81873L-1.11318 7.20545L-1.44014 6.96639L-1.76709 7.20194L-1.64053 6.81873L-1.96748 6.58319H-1.56318L-1.44014 6.19998ZM0.841504 6.19998L0.964551 6.58319H1.36885L1.04189 6.81873L1.16494 7.20545L0.841504 6.96639L0.514551 7.20194L0.637598 6.81873L0.314161 6.58319H0.714942L0.841504 6.19998ZM3.11963 6.19998L3.24619 6.58319H3.64697L3.32354 6.81873L3.44658 7.20545L3.11963 6.96639L2.79619 7.20194L2.91924 6.81873L2.59229 6.58319H3.0001L3.11963 6.19998ZM5.40127 6.19998L5.52432 6.58319H5.92861L5.60166 6.81873L5.72471 7.20545L5.40127 6.96639L5.07432 7.20194L5.19736 6.81873L4.87393 6.58319H5.27471L5.40127 6.19998ZM-4.86084 7.1703L-4.73428 7.5535H-4.3335L-4.65693 7.78904L-4.53389 8.17225L-4.86084 7.9367L-5.18428 8.17225L-5.06123 7.78553L-5.38818 7.54998H-4.98037L-4.86084 7.1703ZM-2.5792 7.1703L-2.45615 7.5535H-2.05186L-2.37881 7.78904L-2.25225 8.17225L-2.5792 7.9367L-2.90615 8.17225L-2.77959 7.78553L-3.10654 7.54998H-2.70576L-2.5792 7.1703ZM-0.301074 7.1703L-0.174512 7.5535H0.222754L-0.0936521 7.78904L0.0293947 8.17225L-0.297558 7.9367L-0.620996 8.17225L-0.497949 7.78553L-0.824902 7.54998H-0.420605L-0.301074 7.1703ZM1.98057 7.1703L2.10361 7.5535H2.50791L2.18096 7.78904L2.30752 8.17225L1.98057 7.9367L1.65361 8.17225L1.78018 7.78553L1.45322 7.54998H1.854L1.98057 7.1703ZM4.25869 7.1703L4.38525 7.5535H4.78603L4.4626 7.78904L4.58564 8.17225L4.25869 7.9367L3.93525 8.17225L4.0583 7.78553L3.73486 7.54998H4.13564L4.25869 7.1703ZM6.54033 7.1703L6.66338 7.5535H7.06768L6.74072 7.78904L6.86729 8.17225L6.54033 7.9367L6.21338 8.17225L6.33994 7.78553L6.01299 7.54998H6.41729L6.54033 7.1703Z" fill="white"/>
</g>
</g>
<defs>
<clipPath id="clip0_1371_11011">
<rect width="24" height="18" fill="white" transform="translate(-6 -1)"/>
</clipPath>
</defs>
</svg>
