<?xml version="1.0" encoding="UTF-8"?>
<svg id="Layer_1" xmlns="http://www.w3.org/2000/svg" xmlns:xlink="http://www.w3.org/1999/xlink" version="1.1" viewBox="0 0 12 12">
  <!-- Generator: Adobe Illustrator 29.3.1, SVG Export Plug-In . SVG Version: 2.1.0 Build 151)  -->
  <defs>
    <style>
      .st0 {
        fill: none;
      }

      .st1 {
        fill: #fff;
      }
    </style>
  </defs>
  <path class="st0" d="M0,0h12v12H0V0Z"/>
  <path class="st1" d="M6,7c.8,0,1.5-.7,1.5-1.5v-3c0-.8-.7-1.5-1.5-1.5s-1.5.7-1.5,1.5v3c0,.8.7,1.5,1.5,1.5ZM8.6,5.5c0,1.5-1.3,2.6-2.7,2.6s-2.6-1.1-2.6-2.6h-.8c0,1.7,1.4,3.1,3,3.4v1.6h1v-1.6c1.6-.2,3-1.7,3-3.4h-.9Z"/>
</svg>